<svg xmlns="http://www.w3.org/2000/svg" id="diagram" width="600" height="600">
  <defs>
    <clipPath id="clipPath-0">
      <rect x="0.0" y="0.0" width="600.0" height="600.0"/>
    </clipPath>
    <clipPath id="clipPath-1">
      <rect x="0.0" y="0.0" width="600.0" height="600.0"/>
    </clipPath>
    <marker id="arrow-head-end-2_None_24_60-black" markerWidth="9.0" markerHeight="8.0" markerUnits="userSpaceOnUse" orient="auto-start-reverse" refX="6.5" refY="4.0">
      <path d="M 9.0 4.0L 0.0 8.0L 1.7 5.0L 1.7 3.0L 0.0 0.0Z" fill="black" stroke="none"/>
    </marker>
    <marker id="arrow-head-end-2_None_24_60-black-outline" markerWidth="13.0" markerHeight="12.0" markerUnits="userSpaceOnUse" orient="auto-start-reverse" refX="8.5" refY="6.0">
      <path d="M 11.8 7.8 L 2.8 11.8 A 2 2 0 0 1 0.0 10.0 L 0.0 2.0 A 2 2 0 0 1 2.8 0.2 L 11.8 4.2 A 2 2 0 0 1 11.8 7.8 Z" fill="white" stroke="none"/>
    </marker>
  </defs>
  <g id="g-0">
    <path id="edge-0-1" d="M 298.2 261.7 Q 258.4 220.4 213.8 185.0 Q 202.6 176.1 191.2 167.7 Q 185.5 163.4 179.7 159.2 Q 176.8 157.2 173.9 155.1" stroke="black" stroke-width="2" stroke-dasharray="none" fill="none" clip-path="url(#clipPath-1)" marker-end="url(#arrow-head-end-2_None_24_60-black)"/>
    <g id="label-0" transform="translate(217.8,181.0) translate(0.0,-10.6)">
      <g id="g-2">
        <text font-family="sans" font-size="14" x="0.0" y="10.4">0.6</text>
      </g>
    </g>
    <path id="edge-1-0" d="M 120.0 120.0 Q 159.9 161.3 204.4 196.7 Q 215.6 205.6 227.0 214.1 Q 232.7 218.3 238.5 222.5 Q 241.4 224.6 244.3 226.6" stroke="black" stroke-width="2" stroke-dasharray="none" fill="none" clip-path="url(#clipPath-1)" marker-end="url(#arrow-head-end-2_None_24_60-black)"/>
    <g id="label-1" transform="translate(200.4,200.7) translate(-22.3,-0.0)">
      <g id="g-3">
        <text font-family="sans" font-size="14" x="0.0" y="10.4">0.9</text>
      </g>
    </g>
    <path id="edge-0-2" d="M 298.2 261.7 Q 319.1 319.7 346.7 374.3 Q 353.6 387.9 360.9 401.3 Q 364.6 408.0 368.3 414.7 Q 370.2 418.0 372.1 421.3 Q 373.0 423.0 374.0 424.7 Q 374.5 425.5 375.0 426.3" stroke="black" stroke-width="2" stroke-dasharray="none" fill="none" clip-path="url(#clipPath-1)" marker-end="url(#arrow-head-end-2_None_24_60-black)"/>
    <g id="label-2" transform="translate(342.7,378.3) translate(-22.3,-0.0)">
      <g id="g-4">
        <text font-family="sans" font-size="14" x="0.0" y="10.4">0.4</text>
      </g>
    </g>
    <path id="edge-2-0" d="M 408.5 480.0 Q 387.7 422.1 360.1 367.5 Q 353.2 353.8 345.9 340.4 Q 342.2 333.7 338.5 327.0 Q 336.6 323.7 334.7 320.4 Q 333.7 318.7 332.8 317.1 Q 332.3 316.3 331.8 315.4" stroke="black" stroke-width="2" stroke-dasharray="none" fill="none" clip-path="url(#clipPath-1)" marker-end="url(#arrow-head-end-2_None_24_60-black)"/>
    <g id="label-3" transform="translate(364.1,363.5) translate(0.0,-10.6)">
      <g id="g-5">
        <text font-family="sans" font-size="14" x="0.0" y="10.4">0.8</text>
      </g>
    </g>
    <path id="edge-2-3" d="M 408.5 480.0 Q 433.5 431.4 451.3 380.3 Q 455.8 367.6 459.8 354.7 Q 461.8 348.2 463.7 341.7 Q 464.2 340.1 464.7 338.5" stroke="black" stroke-width="2" stroke-dasharray="none" fill="none" clip-path="url(#clipPath-1)" marker-end="url(#arrow-head-end-2_None_24_60-black)"/>
    <g id="label-4" transform="translate(455.3,384.3) translate(0.0,-0.0)">
      <g id="g-6">
        <text font-family="sans" font-size="14" x="0.0" y="10.4">0.2</text>
      </g>
    </g>
    <path id="edge-3-2" d="M 480.0 275.7 Q 455.1 324.3 437.2 375.4 Q 432.7 388.2 428.7 401.1 Q 426.7 407.5 424.8 414.0 Q 424.3 415.7 423.8 417.3" stroke="black" stroke-width="2" stroke-dasharray="none" fill="none" clip-path="url(#clipPath-1)" marker-end="url(#arrow-head-end-2_None_24_60-black)"/>
    <g id="label-5" transform="translate(433.2,371.4) translate(-22.3,-10.6)">
      <g id="g-7">
        <text font-family="sans" font-size="14" x="0.0" y="10.4">0.5</text>
      </g>
    </g>
    <line id="edge-3-0" x1="480.0" y1="275.7" x2="361.1" y2="266.6" stroke="black" stroke-width="2" stroke-dasharray="none" fill="none" marker-end="url(#arrow-head-end-2_None_24_60-black)"/>
    <g id="label-6" transform="translate(389.1,264.7) translate(-11.1,-10.6)">
      <g id="g-8">
        <text font-family="sans" font-size="14" x="0.0" y="10.4">0.5</text>
      </g>
    </g>
    <path id="loop-1" d="M 120.0 120.0 C 90.1 157.6 -3.8 82.9 26.1 45.3 C 41.0 26.5 72.0 35.8 95.5 54.5 C 96.9 55.6 98.3 56.9 99.8 58.1" stroke="black" stroke-width="2" stroke-dasharray="none" fill="none" clip-path="url(#clipPath-1)" marker-end="url(#arrow-head-end-2_None_24_60-black)"/>
    <g id="label-7" transform="translate(22.1,41.3) translate(-22.3,-10.6)">
      <g id="g-9">
        <text font-family="sans" font-size="14" x="0.0" y="10.4">0.1</text>
      </g>
    </g>
  </g>
  <g id="g-1">
    <circle id="node-0" cx="298.2" cy="261.7" r="60" stroke="black" stroke-width="1" fill="darkorange"/>
    <g id="0" transform="translate(298.2,261.7) translate(-39.6,-6.8)">
      <g id="g-10">
        <text font-family="sans" font-size="14" x="0.0" y="10.6">Acrophobia</text>
      </g>
    </g>
    <circle id="node-1" cx="120.0" cy="120.0" r="60" stroke="black" stroke-width="1" fill="darkorange"/>
    <g id="1" transform="translate(120.0,120.0) translate(-54.1,-6.8)">
      <g id="g-11">
        <text font-family="sans" font-size="14" x="0.0" y="10.6">Gravity Gripper</text>
      </g>
    </g>
    <circle id="node-2" cx="408.5" cy="480.0" r="60" stroke="black" stroke-width="1" fill="darkorange"/>
    <g id="2" transform="translate(408.5,480.0) translate(-61.2,-5.4)">
      <g id="g-12">
        <text font-family="sans" font-size="14" x="0.0" y="10.6">Perilous Plummet</text>
      </g>
    </g>
    <circle id="node-3" cx="480.0" cy="275.7" r="60" stroke="black" stroke-width="1" fill="darkorange"/>
    <g id="3" transform="translate(480.0,275.7) translate(-61.2,-6.8)">
      <g id="g-13">
        <text font-family="sans" font-size="14" x="0.0" y="10.6">Velocity Vexation</text>
      </g>
    </g>
  </g>
</svg>
